<svg width="0" height="0" class="hidden">
      <symbol xmlns="http://www.w3.org/2000/svg" viewBox="0 0 16 16" id="github">
        <title></title>
        <rect x="2" y="5" width="11" height="10"   fill="#fff"/>
        <ellipse cx="5" cy="10.5" rx="1" ry="1.5"></ellipse>
        <ellipse cx="11" cy="10.5" rx="1" ry="1.5"></ellipse>
        <path d="M14.5 4H14l-1.586-2.38a.497.497 0 00-.828 0L10 4H6L4.414 1.62a.497.497 0 00-.828 0L2 4h-.5a.5.5 0 00-.5.5v10a.5.5 0 00.5.5h13a.5.5 0 00.5-.5v-10a.5.5 0 00-.5-.5zM13 13H3V8h10v5z" fill="#000"></path>
      </symbol>
      <symbol xmlns="http://www.w3.org/2000/svg"  viewBox="1100 1000 200.2 1423.68" id="rs">
        <path d="M1275.7 1610.91l109.66-7.65c2.54 17.85 7.65 30.6 15.3 40.8 12.75 15.3 28.05 22.95 51 22.95 15.3 0 28.05-5.1 38.25-12.75 7.65-5.1 12.75-15.3 12.75-25.5s-5.1-20.4-12.75-25.5c-7.65-7.65-28.05-15.3-58.65-22.95-51.01-10.2-86.71-25.5-107.11-45.9-22.95-17.85-33.15-43.36-33.15-71.41 0-17.85 5.1-38.25 15.3-53.55 12.75-17.85 30.6-33.15 51-40.8 22.95-7.65 53.56-12.75 91.81-12.75 48.45 0 84.15 7.65 109.65 25.5 22.95 17.85 38.25 45.9 43.35 84.15l-107.1 7.65c-2.55-17.85-10.2-30.6-20.4-38.25-7.65-7.65-20.4-10.2-38.25-10.2-12.75 0-22.95 2.55-28.05 7.65-7.65 5.1-10.2 12.75-10.2 20.4 0 7.65 2.55 12.75 7.65 15.3 5.1 5.1 17.85 10.2 38.25 15.3 51 10.2 86.7 20.4 109.65 33.16 20.4 10.2 38.25 22.95 45.9 40.8 10.2 15.3 15.3 35.7 15.3 56.1 0 22.95-7.65 45.9-20.4 66.3-12.75 20.4-33.15 35.7-56.1 43.35-22.95 12.75-53.55 17.85-89.25 17.85-63.75 0-107.11-12.75-130.06-38.25-25.5-22.95-40.8-53.55-43.35-91.8zm-1160.29 122.4V1361h193.8c33.16 0 61.21 2.55 81.61 10.2 17.85 5.1 33.15 17.85 43.35 33.15 12.75 17.85 17.85 38.25 17.85 61.2 2.55 35.71-17.85 71.41-48.45 89.26-12.75 7.65-25.5 12.75-40.8 15.3 10.2 2.55 20.4 7.65 30.6 12.75 5.1 7.65 12.75 12.75 17.85 20.4l15.3 22.95 56.1 107.1H352.57l-61.21-114.75c-7.65-12.75-15.3-22.95-20.4-28.05-10.2-5.1-20.4-7.65-30.6-7.65h-10.2v150.45H115.41zm114.75-221.86h51c10.2 0 20.4-2.54 30.6-5.09 5.1 0 12.75-5.1 17.85-10.21 10.2-15.3 10.2-35.7-5.1-48.45-7.65-7.65-20.4-10.2-43.35-10.2h-51v73.95zM89.9 2049.53l109.66-5.1c2.55 17.85 7.65 30.6 15.3 40.8 10.2 15.3 28.05 22.95 51 22.95 15.3 0 28.05-5.1 35.7-12.75 10.2-7.65 15.3-15.3 15.3-25.5s-5.1-20.4-12.75-28.06c-10.2-5.1-28.05-12.75-58.65-20.4-51-10.2-86.7-25.5-109.65-45.9-20.4-17.85-33.15-43.35-33.15-71.4 0-20.4 7.65-38.25 17.85-53.55 12.75-17.85 30.6-33.15 51-40.8 20.4-10.2 51-15.3 91.8-15.3 45.9 0 81.6 10.2 107.11 28.05 25.5 17.85 40.8 45.9 45.9 84.15l-109.66 5.1c-2.55-15.3-7.65-28.05-17.85-35.7-10.2-7.65-22.95-12.75-38.25-10.2-12.75 0-22.95 2.55-30.6 7.65-7.65 5.1-10.2 12.75-10.2 20.4 0 7.65 2.55 12.75 7.65 15.3 7.65 5.1 20.4 10.2 40.8 15.3 48.45 10.2 84.16 20.4 107.11 33.15 22.95 10.2 38.25 22.95 48.45 40.8 10.2 15.3 15.3 35.7 15.3 53.56 0 25.5-7.65 48.45-20.4 66.3-15.3 20.4-33.15 35.7-56.1 45.9-22.96 10.2-53.56 15.3-89.26 15.3-63.75 0-107.1-10.2-132.6-35.7-22.95-25.5-38.26-56.1-40.81-94.35z"></path>
        <path d="M643.28 2021.47l102 30.61c-5.1 25.5-17.85 48.45-33.15 71.4-12.75 17.85-33.15 33.15-53.55 40.8-22.95 10.2-48.45 15.3-81.61 15.3-40.8 0-73.95-5.1-99.45-17.85-25.5-10.2-48.45-30.6-66.3-61.2-20.4-30.6-28.05-66.31-28.05-114.76 0-61.2 15.3-107.1 48.45-140.25 33.15-33.15 79.05-51 137.7-51 48.46 0 84.16 10.2 112.21 28.05 25.5 20.4 45.9 48.45 58.65 89.25l-99.45 20.4c-2.55-7.65-7.65-15.3-12.75-22.95-5.1-10.2-12.75-15.3-22.95-20.4-10.21-5.1-20.41-7.65-30.61-7.65-28.05 0-48.45 10.2-61.2 30.6-10.2 15.3-15.3 40.8-15.3 73.95 0 40.8 5.1 68.86 17.85 84.16 12.75 15.3 30.6 22.95 53.55 22.95 22.95 0 38.26-5.1 51.01-17.85 10.2-12.75 17.85-30.6 22.95-53.56zm237.16-219.3h114.75v130.05h124.96v-130.05h114.75v372.31h-114.75v-150.46H995.19v150.46H880.44v-372.31z"></path>
        <path d="M1219.6 1988.32c0-61.2 17.85-109.65 48.45-142.8 33.15-33.15 81.6-51 142.81-51 61.2 0 109.65 17.85 142.8 51 33.15 33.15 51 79.05 51 140.25 0 43.35-7.65 79.06-22.95 107.11-15.3 25.5-35.7 48.45-63.75 63.75-28.05 15.3-61.2 22.95-104.55 22.95-40.81 0-76.51-5.1-102.01-20.4-30.6-12.75-53.55-35.7-68.85-61.2-12.75-30.6-22.95-66.3-22.95-109.66zm112.2 0c0 38.25 7.65 63.76 20.4 81.61 15.31 15.3 33.16 22.95 58.66 22.95 22.95 0 43.35-7.65 56.1-22.95 15.3-15.3 20.4-45.91 20.4-86.71 0-35.7-5.1-61.2-20.4-76.5-15.3-17.85-33.15-25.5-58.65-25.5-20.41 0-40.8 10.2-53.56 25.5-15.3 15.3-22.95 43.35-22.95 81.6zm390.17 0c0-61.2 17.85-109.65 51-142.8 33.15-33.15 81.6-51 140.26-51 63.75 0 109.65 17.85 145.35 51 33.15 33.15 48.45 79.05 48.45 140.25 0 43.35-7.65 79.06-20.4 107.11-15.3 25.5-38.25 48.45-63.75 63.75-28.05 15.3-63.75 22.95-104.55 22.95s-76.51-5.1-104.56-20.4c-28.05-12.75-51-35.7-66.3-61.2-17.85-30.6-25.5-66.3-25.5-109.66zm114.75 0c0 38.25 7.65 63.76 20.4 81.61 12.75 15.3 33.15 22.95 56.11 22.95 25.5 0 45.9-7.65 58.65-22.95 12.75-15.3 20.4-45.91 20.4-86.71 0-35.7-7.65-61.2-20.4-76.5-15.3-17.85-33.15-25.5-58.65-25.5-20.4 0-40.81 10.2-56.11 25.5-12.75 15.3-20.4 43.35-20.4 81.6z"></path>
        <path d="M2096.83 1802.17h114.76v280.51h178.51v91.8h-295.82v-372.31zm-48.45-349.37c71.4 94.36 35.7 242.26-79.05 326.41-117.31 86.71-267.76 81.61-339.16-12.75-71.41-94.35-35.71-242.25 79.05-328.96 114.75-86.7 267.76-81.6 339.16 15.3z"></path>
        <path fill="#fff" stroke="#000" stroke-width="20" d="M2048.38 1452.8c71.4 94.36 35.7 242.26-79.05 326.41-117.31 86.71-267.76 81.61-339.16-12.75-71.41-94.35-35.71-242.25 79.05-328.96 114.75-86.7 267.76-81.6 339.16 15.3z"></path>
        <path fill="#000" d="M1721.97 1582.86l40.8-28.05 51 71.4c10.2 12.75 15.3 25.5 20.4 38.25 5.1 10.2 2.55 20.4 0 30.6-5.1 12.75-15.3 22.95-25.5 30.6-15.3 10.2-25.5 15.3-35.7 17.85-10.2 0-20.4 0-30.6-5.1-10.2-5.1-17.85-12.75-25.5-20.4l35.7-33.15 12.75 12.75c2.55 0 5.1 2.55 10.2 2.55 2.55 0 5.1-2.55 7.65-2.55 2.55-2.55 5.1-7.65 5.1-12.75 0-7.65-2.55-15.3-7.65-20.4l-58.65-81.6zm124.95 45.9l38.26-30.6c5.09 5.1 10.2 10.2 15.3 12.75 7.65 2.55 17.85 0 22.95-5.1 5.1-5.1 10.2-7.65 12.75-15.3 2.55-7.65-2.55-15.3-10.2-17.85h-2.55c-5.1 0-15.3 2.55-28.05 7.65-20.41 7.65-38.26 10.2-51.01 10.2-10.2-2.55-22.95-7.65-28.05-17.85-5.1-7.65-7.65-15.3-7.65-22.95 0-10.2 0-20.4 7.65-28.05 7.65-10.21 15.3-20.4 28.05-28.06 17.85-12.75 33.16-17.85 45.9-17.85 12.76 0 25.51 5.1 38.26 17.85l-38.26 30.61c-7.65-10.2-20.4-12.76-30.6-5.1l-2.55 2.55c-2.55 2.55-5.1 5.1-7.65 10.2 0 2.55 0 7.65 2.55 10.2 0 2.55 2.55 2.55 5.1 2.55 5.1 2.55 10.2 0 17.85-5.1 20.41-7.65 38.26-12.75 48.46-15.3 10.2 0 17.85 0 28.05 5.1 7.65 2.55 12.75 7.65 17.85 15.3 7.65 7.65 10.2 17.85 10.2 28.05s-2.55 22.95-7.65 30.6c-7.65 12.75-17.85 20.4-28.05 28.05-22.95 15.3-43.35 22.95-58.65 20.4-15.31-2.55-28.06-10.2-38.26-22.95z"></path>
      </symbol>
    </svg>